<svg preserveAspectRatio="none" width="100%" height="100%" overflow="visible" style="display: block;" viewBox="0 0 73.7647 73.7647" fill="none" xmlns="http://www.w3.org/2000/svg">
<g id="image-gallery">
<g id="image-gallery_2">
<path d="M68.9945 23.3833L65.3064 49.7575C64.8238 53.1168 63.5112 55.5019 61.4427 56.8635C60.7266 57.2323 59.9431 56.8608 59.9431 56.1139V29.709C59.9431 21.6902 55.1546 16.9016 47.1357 16.9016C47.1357 16.9016 19.1294 16.9016 18.2073 16.9016C17.2853 16.9016 17.2637 16.0713 17.3283 15.7025C17.8139 12.795 18.9636 10.6435 20.7462 9.30033C22.6118 7.89573 25.1322 7.40734 28.2518 7.84686L60.7115 12.3956C63.8373 12.8382 66.1359 14.0094 67.5436 15.8781C68.9482 17.7437 69.4371 20.2699 68.9945 23.3833ZM55.3328 29.706V56.3473C55.3328 61.812 52.6005 64.5443 47.1357 64.5443H14.347C8.88228 64.5443 6.14994 61.812 6.14994 56.3473V29.706C6.14994 24.2413 8.88228 21.5089 14.347 21.5089H47.1357C52.6005 21.5089 55.3328 24.2382 55.3328 29.706ZM10.7572 29.706V51.7677L15.1616 47.363C16.2066 46.2873 17.9585 46.2873 19.0342 47.363L21.5851 49.9143C22.1076 50.4368 22.999 50.4368 23.5215 49.9143L37.0143 36.4218C38.0593 35.3768 39.8112 35.3768 40.887 36.4218L50.7225 46.2817V29.706C50.7225 26.7892 50.0525 26.1192 47.1357 26.1192H14.347C11.4272 26.1192 10.7572 26.7892 10.7572 29.706ZM19.9838 38.4193C21.6773 38.4193 23.0514 37.0424 23.0514 35.3458C23.0514 33.6492 21.6773 32.2723 19.9838 32.2723H19.9594C18.2659 32.2723 16.9043 33.6492 16.9043 35.3458C16.9043 37.0424 18.2903 38.4193 19.9838 38.4193Z" fill="var(--fill-0, #141414)"/>
<path d="M68.9945 23.3833L65.3064 49.7575C64.8238 53.1168 63.5112 55.5019 61.4427 56.8635C60.7266 57.2323 59.9431 56.8608 59.9431 56.1139V29.709C59.9431 21.6902 55.1546 16.9016 47.1357 16.9016C47.1357 16.9016 19.1294 16.9016 18.2073 16.9016C17.2853 16.9016 17.2637 16.0713 17.3283 15.7025C17.8139 12.795 18.9636 10.6435 20.7462 9.30033C22.6118 7.89573 25.1322 7.40734 28.2518 7.84686L60.7115 12.3956C63.8373 12.8382 66.1359 14.0094 67.5436 15.8781C68.9482 17.7437 69.4371 20.2699 68.9945 23.3833ZM55.3328 29.706V56.3473C55.3328 61.812 52.6005 64.5443 47.1357 64.5443H14.347C8.88228 64.5443 6.14994 61.812 6.14994 56.3473V29.706C6.14994 24.2413 8.88228 21.5089 14.347 21.5089H47.1357C52.6005 21.5089 55.3328 24.2382 55.3328 29.706ZM10.7572 29.706V51.7677L15.1616 47.363C16.2066 46.2873 17.9585 46.2873 19.0342 47.363L21.5851 49.9143C22.1076 50.4368 22.999 50.4368 23.5215 49.9143L37.0143 36.4218C38.0593 35.3768 39.8112 35.3768 40.887 36.4218L50.7225 46.2817V29.706C50.7225 26.7892 50.0525 26.1192 47.1357 26.1192H14.347C11.4272 26.1192 10.7572 26.7892 10.7572 29.706ZM19.9838 38.4193C21.6773 38.4193 23.0514 37.0424 23.0514 35.3458C23.0514 33.6492 21.6773 32.2723 19.9838 32.2723H19.9594C18.2659 32.2723 16.9043 33.6492 16.9043 35.3458C16.9043 37.0424 18.2903 38.4193 19.9838 38.4193Z" fill="url(#paint0_linear_0_9)"/>
<path d="M68.9945 23.3833L65.3064 49.7575C64.8238 53.1168 63.5112 55.5019 61.4427 56.8635C60.7266 57.2323 59.9431 56.8608 59.9431 56.1139V29.709C59.9431 21.6902 55.1546 16.9016 47.1357 16.9016C47.1357 16.9016 19.1294 16.9016 18.2073 16.9016C17.2853 16.9016 17.2637 16.0713 17.3283 15.7025C17.8139 12.795 18.9636 10.6435 20.7462 9.30033C22.6118 7.89573 25.1322 7.40734 28.2518 7.84686L60.7115 12.3956C63.8373 12.8382 66.1359 14.0094 67.5436 15.8781C68.9482 17.7437 69.4371 20.2699 68.9945 23.3833ZM55.3328 29.706V56.3473C55.3328 61.812 52.6005 64.5443 47.1357 64.5443H14.347C8.88228 64.5443 6.14994 61.812 6.14994 56.3473V29.706C6.14994 24.2413 8.88228 21.5089 14.347 21.5089H47.1357C52.6005 21.5089 55.3328 24.2382 55.3328 29.706ZM10.7572 29.706V51.7677L15.1616 47.363C16.2066 46.2873 17.9585 46.2873 19.0342 47.363L21.5851 49.9143C22.1076 50.4368 22.999 50.4368 23.5215 49.9143L37.0143 36.4218C38.0593 35.3768 39.8112 35.3768 40.887 36.4218L50.7225 46.2817V29.706C50.7225 26.7892 50.0525 26.1192 47.1357 26.1192H14.347C11.4272 26.1192 10.7572 26.7892 10.7572 29.706ZM19.9838 38.4193C21.6773 38.4193 23.0514 37.0424 23.0514 35.3458C23.0514 33.6492 21.6773 32.2723 19.9838 32.2723H19.9594C18.2659 32.2723 16.9043 33.6492 16.9043 35.3458C16.9043 37.0424 18.2903 38.4193 19.9838 38.4193Z" fill="url(#paint1_linear_0_9)"/>
</g>
</g>
<defs>
<linearGradient id="paint0_linear_0_9" x1="38.0362" y1="21.1984" x2="38.0362" y2="64.7472" gradientUnits="userSpaceOnUse">
<stop stop-color="#662BB4"/>
<stop offset="1" stop-color="#374D80"/>
</linearGradient>
<linearGradient id="paint1_linear_0_9" x1="37.648" y1="7.49717" x2="37.648" y2="64.7408" gradientUnits="userSpaceOnUse">
<stop stop-color="#6A3FA2"/>
<stop offset="1" stop-color="#3C4D74"/>
</linearGradient>
</defs>
</svg>
