<svg preserveAspectRatio="none" width="100%" height="100%" overflow="visible" style="display: block;" viewBox="0 0 73.3333 73.3333" fill="none" xmlns="http://www.w3.org/2000/svg">
<path id="Shape" d="M36.6667 0C34.2214 0 31.8294 0.239749 29.5137 0.697854C28.0238 0.992603 27.055 2.43935 27.3497 3.92926C27.6445 5.41917 29.0912 6.38804 30.5811 6.09329C32.5471 5.70435 34.5817 5.5 36.6667 5.5C38.7517 5.5 40.7862 5.70435 42.7522 6.09329C44.2421 6.38804 45.6889 5.41917 45.9836 3.92926C46.2784 2.43935 45.3095 0.992603 43.8196 0.697854C41.5039 0.239749 39.1119 0 36.6667 0ZM19.3519 10.7479C20.614 9.90297 20.9521 8.19492 20.1072 6.93286C19.2623 5.6708 17.5542 5.33265 16.2922 6.17758C12.2948 8.85375 8.85375 12.2948 6.17758 16.2922C5.33265 17.5542 5.6708 19.2623 6.93286 20.1072C8.19492 20.9521 9.90298 20.614 10.7479 19.3519C13.0241 15.952 15.952 13.0241 19.3519 10.7479ZM57.0412 6.17758C55.7791 5.33265 54.0711 5.6708 53.2261 6.93286C52.3812 8.19492 52.7194 9.90298 53.9814 10.7479C57.3814 13.0241 60.3092 15.952 62.5854 19.3519C63.4304 20.614 65.1384 20.9521 66.4005 20.1072C67.6625 19.2623 68.0007 17.5542 67.1558 16.2922C64.4796 12.2948 61.0385 8.85375 57.0412 6.17758ZM72.6355 29.5137C72.3407 28.0238 70.894 27.055 69.4041 27.3497C67.9142 27.6445 66.9453 29.0912 67.24 30.5811C67.629 32.5471 67.8333 34.5817 67.8333 36.6667C67.8333 38.7517 67.629 40.7862 67.24 42.7522C66.9453 44.2421 67.9142 45.6889 69.4041 45.9836C70.894 46.2784 72.3407 45.3095 72.6355 43.8196C73.0936 41.5039 73.3333 39.1119 73.3333 36.6667C73.3333 34.2214 73.0936 31.8294 72.6355 29.5137ZM6.09329 30.5811C6.38804 29.0912 5.41917 27.6445 3.92926 27.3497C2.43935 27.055 0.992603 28.0238 0.697854 29.5137C0.239749 31.8294 0 34.2214 0 36.6667C0 39.1119 0.239749 41.5039 0.697854 43.8196C0.992603 45.3095 2.43935 46.2784 3.92926 45.9836C5.41917 45.6889 6.38804 44.2421 6.09329 42.7522C5.70435 40.7862 5.5 38.7517 5.5 36.6667C5.5 34.5817 5.70435 32.5471 6.09329 30.5811ZM10.7479 53.9814C9.90297 52.7194 8.19492 52.3812 6.93286 53.2261C5.6708 54.0711 5.33265 55.7791 6.17758 57.0412C8.85375 61.0385 12.2948 64.4796 16.2922 67.1558C17.5542 68.0007 19.2623 67.6625 20.1072 66.4005C20.9521 65.1384 20.614 63.4304 19.3519 62.5854C15.952 60.3092 13.0241 57.3814 10.7479 53.9814ZM67.1558 57.0412C68.0007 55.7791 67.6625 54.0711 66.4005 53.2261C65.1384 52.3812 63.4304 52.7194 62.5854 53.9814C60.3092 57.3814 57.3814 60.3092 53.9814 62.5854C52.7194 63.4304 52.3812 65.1384 53.2261 66.4005C54.0711 67.6625 55.7791 68.0007 57.0412 67.1558C61.0385 64.4796 64.4796 61.0385 67.1558 57.0412ZM30.5811 67.24C29.0912 66.9453 27.6445 67.9142 27.3497 69.4041C27.055 70.894 28.0238 72.3407 29.5137 72.6355C31.8294 73.0936 34.2214 73.3333 36.6667 73.3333C39.1119 73.3333 41.5039 73.0936 43.8196 72.6355C45.3095 72.3407 46.2784 70.894 45.9836 69.4041C45.6889 67.9142 44.2421 66.9453 42.7522 67.24C40.7862 67.629 38.7517 67.8333 36.6667 67.8333C34.5817 67.8333 32.5471 67.629 30.5811 67.24ZM25.6667 26.5739C25.6667 23.0847 29.4158 20.8773 32.4706 22.5678L53.5824 34.2508C54.4572 34.7349 55 35.6553 55 36.6545C55 37.6536 54.4572 38.574 53.5824 39.0581L32.4706 50.7412C29.4158 52.4317 25.6667 50.2242 25.6667 46.7351V26.5739Z" fill="var(--fill-0, white)"/>
</svg>
