<svg preserveAspectRatio="none" width="100%" height="100%" overflow="visible" style="display: block;" viewBox="0 0 73.7647 73.7647" fill="none" xmlns="http://www.w3.org/2000/svg">
<g id="trophy-star">
<g id="trophy-star_2">
<path d="M61.4705 13.0625H55.2465C54.8777 10.8834 52.9968 9.22059 50.7131 9.22059H23.0514C20.7677 9.22059 18.8868 10.8834 18.518 13.0625H12.294C9.32805 13.0625 6.91533 15.4752 6.91533 18.4412V23.5126C6.91533 32.2045 14.2825 36.114 19.5167 36.114H20.5065C23.2358 41.3912 28.4361 45.1747 34.5801 45.9431V55.4988C29.976 56.2149 27.6647 59.2239 27.6647 64.5411H46.1058C46.1058 59.2209 43.7945 56.2149 39.1904 55.4988V45.9431C45.3344 45.1747 50.5317 41.3912 53.264 36.114H54.2538C59.4849 36.114 66.8552 32.2045 66.8552 23.5126V18.4412C66.849 15.4752 64.4364 13.0625 61.4705 13.0625ZM11.5256 23.5126V18.4412C11.5256 18.017 11.8699 17.6728 12.294 17.6728H18.4411V27.6618C18.4411 28.9588 18.5792 30.2221 18.8313 31.4453C16.0743 31.1503 11.5256 29.0787 11.5256 23.5126ZM45.7926 25.0124L42.4729 28.2334C42.2301 28.47 42.1196 28.8083 42.178 29.1402L42.937 33.5507C43.0907 34.4451 42.1504 35.1274 41.3451 34.7063L37.3617 32.6225C37.0636 32.4657 36.7069 32.4657 36.4088 32.6225L32.4288 34.7063C31.6235 35.1274 30.6798 34.445 30.8335 33.5475L31.5929 29.1432C31.6513 28.8113 31.5404 28.4701 31.2976 28.2366L27.9783 25.0154C27.3698 24.4222 27.7046 23.3895 28.5467 23.2697L33.1386 22.6058C33.4736 22.5566 33.7625 22.3476 33.91 22.0464L35.8989 18.0324C36.3015 17.2179 37.4664 17.2179 37.869 18.0324L39.8575 22.0464C40.0081 22.3476 40.2969 22.5566 40.6289 22.6058L45.2208 23.2697C46.066 23.3864 46.4011 24.4192 45.7926 25.0124ZM62.2389 23.5126C62.2389 29.0787 57.6902 31.1503 54.9332 31.4453C55.1883 30.2252 55.3234 28.9588 55.3234 27.6618V17.6728H61.4705C61.8946 17.6728 62.2389 18.017 62.2389 18.4412V23.5126Z" fill="var(--fill-0, #141414)"/>
<path d="M61.4705 13.0625H55.2465C54.8777 10.8834 52.9968 9.22059 50.7131 9.22059H23.0514C20.7677 9.22059 18.8868 10.8834 18.518 13.0625H12.294C9.32805 13.0625 6.91533 15.4752 6.91533 18.4412V23.5126C6.91533 32.2045 14.2825 36.114 19.5167 36.114H20.5065C23.2358 41.3912 28.4361 45.1747 34.5801 45.9431V55.4988C29.976 56.2149 27.6647 59.2239 27.6647 64.5411H46.1058C46.1058 59.2209 43.7945 56.2149 39.1904 55.4988V45.9431C45.3344 45.1747 50.5317 41.3912 53.264 36.114H54.2538C59.4849 36.114 66.8552 32.2045 66.8552 23.5126V18.4412C66.849 15.4752 64.4364 13.0625 61.4705 13.0625ZM11.5256 23.5126V18.4412C11.5256 18.017 11.8699 17.6728 12.294 17.6728H18.4411V27.6618C18.4411 28.9588 18.5792 30.2221 18.8313 31.4453C16.0743 31.1503 11.5256 29.0787 11.5256 23.5126ZM45.7926 25.0124L42.4729 28.2334C42.2301 28.47 42.1196 28.8083 42.178 29.1402L42.937 33.5507C43.0907 34.4451 42.1504 35.1274 41.3451 34.7063L37.3617 32.6225C37.0636 32.4657 36.7069 32.4657 36.4088 32.6225L32.4288 34.7063C31.6235 35.1274 30.6798 34.445 30.8335 33.5475L31.5929 29.1432C31.6513 28.8113 31.5404 28.4701 31.2976 28.2366L27.9783 25.0154C27.3698 24.4222 27.7046 23.3895 28.5467 23.2697L33.1386 22.6058C33.4736 22.5566 33.7625 22.3476 33.91 22.0464L35.8989 18.0324C36.3015 17.2179 37.4664 17.2179 37.869 18.0324L39.8575 22.0464C40.0081 22.3476 40.2969 22.5566 40.6289 22.6058L45.2208 23.2697C46.066 23.3864 46.4011 24.4192 45.7926 25.0124ZM62.2389 23.5126C62.2389 29.0787 57.6902 31.1503 54.9332 31.4453C55.1883 30.2252 55.3234 28.9588 55.3234 27.6618V17.6728H61.4705C61.8946 17.6728 62.2389 18.017 62.2389 18.4412V23.5126Z" fill="url(#paint0_linear_0_11)"/>
</g>
</g>
<defs>
<linearGradient id="paint0_linear_0_11" x1="36.8822" y1="9.03242" x2="36.8822" y2="64.7323" gradientUnits="userSpaceOnUse">
<stop stop-color="#6A3FA2"/>
<stop offset="1" stop-color="#3C4D74"/>
</linearGradient>
</defs>
</svg>
