<svg preserveAspectRatio="none" width="100%" height="100%" overflow="visible" style="display: block;" viewBox="0 0 73.7647 73.7647" fill="none" xmlns="http://www.w3.org/2000/svg">
<g id="book-open-text">
<path id="book-open-text_2" d="M34.3927 17.4146C34.5126 17.5805 34.5773 17.7864 34.5773 17.9924V58.5444C34.5773 59.236 33.8489 59.6539 33.2311 59.3466C25.9007 55.6891 18.5455 55.6985 11.2151 57.7854C10.2009 58.062 9.21765 57.3552 9.21765 56.341V16.3543C9.21765 15.7611 9.55854 15.2017 10.0933 14.9466C15.1401 12.5431 20.4913 11.8636 26.0605 12.5398C29.5183 12.9578 32.4779 14.7867 34.3927 17.4146ZM64.5442 16.3509V56.3376C64.5442 57.3518 63.561 58.059 62.5467 57.7824C55.2194 55.6955 47.8642 55.6861 40.5307 59.3436C39.913 59.6509 39.1846 59.233 39.1846 58.5414V17.9894C39.1846 17.7834 39.2493 17.5775 39.3692 17.4116C41.284 14.7837 44.2467 12.9548 47.6983 12.5368C53.2675 11.8606 58.6218 12.537 63.6655 14.9436C64.2034 15.1987 64.5442 15.7577 64.5442 16.3509ZM54.5552 36.8823C54.5552 35.6098 53.5225 34.5771 52.2501 34.5771H46.103C44.8306 34.5771 43.7979 35.6098 43.7979 36.8823C43.7979 38.1547 44.8306 39.1874 46.103 39.1874H52.2501C53.5225 39.1874 54.5552 38.1547 54.5552 36.8823ZM57.6287 27.6617C57.6287 26.3892 56.596 25.3565 55.3236 25.3565H46.103C44.8306 25.3565 43.7979 26.3892 43.7979 27.6617C43.7979 28.9341 44.8306 29.9668 46.103 29.9668H55.3236C56.596 29.9668 57.6287 28.9341 57.6287 27.6617Z" fill="url(#paint0_linear_0_13)"/>
</g>
<defs>
<linearGradient id="paint0_linear_0_13" x1="36.8782" y1="12.1284" x2="36.8782" y2="59.612" gradientUnits="userSpaceOnUse">
<stop stop-color="#6A3FA2"/>
<stop offset="1" stop-color="#3C4D74"/>
</linearGradient>
</defs>
</svg>
