<svg preserveAspectRatio="none" width="100%" height="100%" overflow="visible" style="display: block;" viewBox="0 0 73.7647 73.7647" fill="none" xmlns="http://www.w3.org/2000/svg">
<g id="settings">
<g id="settings_2">
<path d="M63.6529 44.5048C60.7945 42.845 59.0426 39.8022 59.0426 36.5136C59.0426 33.2249 60.7945 30.1821 63.6529 28.5224C64.1446 28.215 64.3291 27.6003 64.0218 27.1086L58.8889 18.2568C58.7045 17.9187 58.3664 17.7343 58.0283 17.7343C57.8439 17.7343 57.6595 17.7958 57.5058 17.888C56.092 18.6871 54.4937 19.1174 52.8955 19.1174C51.2665 19.1174 49.6683 18.6871 48.2238 17.8572C45.3654 16.1975 43.6135 13.1855 43.6135 9.89677C43.6135 9.3128 43.1525 8.85179 42.5993 8.85179H30.428C29.8748 8.85179 29.4138 9.3128 29.4138 9.89677C29.4138 13.1855 27.6619 16.1975 24.8035 17.8572C23.3589 18.6871 21.7607 19.1174 20.1318 19.1174C18.5335 19.1174 16.9353 18.6871 15.5215 17.888C15.0297 17.5806 14.415 17.765 14.1383 18.2568L8.97483 27.1086C8.88262 27.2622 8.85186 27.4467 8.85186 27.6003C8.85186 27.9692 9.03631 28.3072 9.3744 28.5224C12.2328 30.1821 13.9847 33.1941 13.9847 36.4828C13.9847 39.8022 12.2327 42.845 9.40507 44.5048H9.3744C8.88264 44.8121 8.69815 45.4268 9.0055 45.9186L14.1383 54.7703C14.3227 55.1084 14.6608 55.2928 14.9989 55.2928C15.1833 55.2928 15.3678 55.2313 15.5215 55.1391C18.4106 53.5102 21.9451 53.5102 24.8035 55.1699C27.6311 56.8296 29.383 59.8417 29.383 63.1303C29.383 63.7143 29.844 64.1753 30.428 64.1753H42.5993C43.1525 64.1753 43.6135 63.7143 43.6135 63.1303C43.6135 59.8417 45.3654 56.8296 48.2238 55.1699C49.6683 54.3401 51.2665 53.9097 52.8955 53.9097C54.4937 53.9097 56.092 54.34 57.5058 55.1391C57.9976 55.4465 58.6123 55.2621 58.8889 54.7703L64.0524 45.9186C64.1446 45.7649 64.1754 45.5805 64.1754 45.4268C64.1754 45.058 63.991 44.7199 63.6529 44.5048ZM36.5136 45.7341C31.4116 45.7341 27.293 41.6156 27.293 36.5136C27.293 31.4115 31.4116 27.293 36.5136 27.293C41.6157 27.293 45.7342 31.4115 45.7342 36.5136C45.7342 41.6156 41.6157 45.7341 36.5136 45.7341Z" fill="var(--fill-0, #141414)"/>
<path d="M63.6529 44.5048C60.7945 42.845 59.0426 39.8022 59.0426 36.5136C59.0426 33.2249 60.7945 30.1821 63.6529 28.5224C64.1446 28.215 64.3291 27.6003 64.0218 27.1086L58.8889 18.2568C58.7045 17.9187 58.3664 17.7343 58.0283 17.7343C57.8439 17.7343 57.6595 17.7958 57.5058 17.888C56.092 18.6871 54.4937 19.1174 52.8955 19.1174C51.2665 19.1174 49.6683 18.6871 48.2238 17.8572C45.3654 16.1975 43.6135 13.1855 43.6135 9.89677C43.6135 9.3128 43.1525 8.85179 42.5993 8.85179H30.428C29.8748 8.85179 29.4138 9.3128 29.4138 9.89677C29.4138 13.1855 27.6619 16.1975 24.8035 17.8572C23.3589 18.6871 21.7607 19.1174 20.1318 19.1174C18.5335 19.1174 16.9353 18.6871 15.5215 17.888C15.0297 17.5806 14.415 17.765 14.1383 18.2568L8.97483 27.1086C8.88262 27.2622 8.85186 27.4467 8.85186 27.6003C8.85186 27.9692 9.03631 28.3072 9.3744 28.5224C12.2328 30.1821 13.9847 33.1941 13.9847 36.4828C13.9847 39.8022 12.2327 42.845 9.40507 44.5048H9.3744C8.88264 44.8121 8.69815 45.4268 9.0055 45.9186L14.1383 54.7703C14.3227 55.1084 14.6608 55.2928 14.9989 55.2928C15.1833 55.2928 15.3678 55.2313 15.5215 55.1391C18.4106 53.5102 21.9451 53.5102 24.8035 55.1699C27.6311 56.8296 29.383 59.8417 29.383 63.1303C29.383 63.7143 29.844 64.1753 30.428 64.1753H42.5993C43.1525 64.1753 43.6135 63.7143 43.6135 63.1303C43.6135 59.8417 45.3654 56.8296 48.2238 55.1699C49.6683 54.3401 51.2665 53.9097 52.8955 53.9097C54.4937 53.9097 56.092 54.34 57.5058 55.1391C57.9976 55.4465 58.6123 55.2621 58.8889 54.7703L64.0524 45.9186C64.1446 45.7649 64.1754 45.5805 64.1754 45.4268C64.1754 45.058 63.991 44.7199 63.6529 44.5048ZM36.5136 45.7341C31.4116 45.7341 27.293 41.6156 27.293 36.5136C27.293 31.4115 31.4116 27.293 36.5136 27.293C41.6157 27.293 45.7342 31.4115 45.7342 36.5136C45.7342 41.6156 41.6157 45.7341 36.5136 45.7341Z" fill="url(#paint0_linear_0_6)"/>
</g>
</g>
<defs>
<linearGradient id="paint0_linear_0_6" x1="36.5109" y1="8.6636" x2="36.5109" y2="64.3665" gradientUnits="userSpaceOnUse">
<stop stop-color="#6A3FA2"/>
<stop offset="1" stop-color="#3C4D74"/>
</linearGradient>
</defs>
</svg>
