<svg preserveAspectRatio="none" width="100%" height="100%" overflow="visible" style="display: block;" viewBox="0 0 64.0023 64.0011" fill="none" xmlns="http://www.w3.org/2000/svg">
<path id="angles-left" d="M34.8293 57.173C36.3933 58.737 36.3933 61.2653 34.8293 62.8293C34.0493 63.6093 33.0251 64.0011 32.0011 64.0011C30.9771 64.0011 29.953 63.6093 29.173 62.8293L1.173 34.8293C-0.391 33.2653 -0.391 30.737 1.173 29.173L29.173 1.173C30.737 -0.391 33.2653 -0.391 34.8293 1.173C36.3933 2.737 36.3933 5.26525 34.8293 6.82925L9.65738 32.0011L34.8293 57.173ZM37.6574 32.0011L62.8293 6.82925C64.3933 5.26525 64.3933 2.737 62.8293 1.173C61.2653 -0.391 58.737 -0.391 57.173 1.173L29.173 29.173C27.609 30.737 27.609 33.2653 29.173 34.8293L57.173 62.8293C57.953 63.6093 58.9771 64.0011 60.0011 64.0011C61.0251 64.0011 62.0493 63.6093 62.8293 62.8293C64.3933 61.2653 64.3933 58.737 62.8293 57.173L37.6574 32.0011Z" fill="var(--fill-0, white)"/>
</svg>
